<svg id="gradient" enable-background="new 0 0 512 512" height="512" viewBox="0 0 512 512" width="512" xmlns="http://www.w3.org/2000/svg" xmlns:xlink="http://www.w3.org/1999/xlink"><linearGradient id="SVGID_1_" gradientUnits="userSpaceOnUse" x1="73.566" x2="512.938" y1="57.566" y2="496.938"><stop offset="0" stop-color="#ff0"/><stop offset=".2613271" stop-color="#fbb03b"/><stop offset="1" stop-color="#f15a24"/></linearGradient><path d="m206.65625 316.4375c-5.0615234 7.5927734-13.53125 12.1254883-22.65625 12.1254883s-17.5947266-4.5327148-22.65625-12.1254883c-2.4511719-3.6762695-1.4570313-8.6430664 2.21875-11.09375 3.6787109-2.4506836 8.6445313-1.4570313 11.09375 2.21875 2.1191406 3.1777344 5.5244141 5.0004883 9.34375 5.0004883s7.2246094-1.8227539 9.34375-5.0004883c2.4482422-3.6757813 7.4140625-4.671875 11.09375-2.21875 3.6757813 2.4506836 4.6699219 7.4174805 2.21875 11.09375zm305.34375 51.5625v120c0 6.4545898-2.5078125 12.4648438-7.0634766 16.9370117-4.4716796 4.5556641-10.4814453 7.0629883-16.9365234 7.0629883h-160-288c-4.4179688 0-8-3.581543-8-8v-120c0-22.0561523 17.9443359-40 40-40h48.1096191c-20.8439941-11.0985107-38.7822266-27.5654297-51.5871582-48.1187744-29.263916-1.8031006-52.5224609-26.1716309-52.5224609-55.8812256 0-2.8045044.4880371-5.4960938 1.3762207-8h-9.3762207c-2.9501953 0-5.6611328-1.6240234-7.0537109-4.2250977-1.3916016-2.6010742-1.2392578-5.7578125.3974609-8.2124023l14.65625-21.984375v-45.578125c0-4.418457 3.5820313-8 8-8h8.2460938c3.9838867-64.1816406 55.6411132-115.7528687 119.7539062-119.7423096v-16.2576904c0-4.418457 3.5820313-8 8-8h48c4.4179688 0 8 3.581543 8 8v16.2541504c31.1958008 1.9125977 60.2304688 14.9801025 82.4667969 37.2990723 22.2939453 22.2109375 35.3847656 51.2636718 37.2919922 82.4467773h8.2412109c4.4179688 0 8 3.581543 8 8v45.578125l14.65625 21.984375c1.6367188 2.4545898 1.7890625 5.6113281.3974609 8.2124023-1.3925781 2.6010743-4.1035156 4.2250977-7.0537109 4.2250977h-9.3762207c.8881836 2.5039063 1.3762207 5.1954956 1.3762207 8 0 29.7095947-23.2585449 54.078125-52.5224609 55.8812256-12.8049317 20.5533447-30.7431641 37.0202637-51.5871582 48.1187744h48.1096191c19.3166504 0 35.4785156 13.7642822 39.1950684 32h128.8049316v-24c0-4.418457 3.5820313-8 8-8h16c13.2333984 0 24 10.7661133 24 24zm-319.7668457 3.5471191-8.2331543-8.2331543-8.2331543 8.2331543-7.5266113 105.3791504 15.7597656 15.7602539 15.7597656-15.7602539zm-48.2331543 9.1394043 20.6862793-20.6865234h-20.6862793zm80 0v-20.6865234h-20.6862793zm121.0517578-164.6865234-5.96875-8.9526367-4.9501953-1.1879883-127.0605469-29.859375h-46.1396484l-127.0927734 30.0253906c-.0400391.0092773-.0810547.0185547-.1210938.0273438l-4.8505859 1.0673828-5.9199219 8.8798828zm-265.0517578 16h-15.7294922c1.1713867 17.6305542 6.1943359 34.7775879 14.7128906 50.0166016.0021973.0039063.0039063.0081787.0061035.012207.1147461.2062988.2214355.4189453.3190918.6381836.1396484.3125.3515625.7026367.5986328 1.0981445.0322266.0509033.0622559.1027832.0927734.154541v-51.9196777zm208 0v51.9196777c.0305176-.0517578.0605469-.1036377.0927734-.154541.2470703-.3955078.4589844-.7856445.5986328-1.0981445.0976563-.2194824.2045898-.432373.3195801-.6391602.0019531-.0036621.0036621-.0075684.0056152-.0112305 8.5185548-15.2390136 13.541504-32.3860473 14.7128907-50.0166015zm40 0h-8.2426758c-.9311523 15.8721313-4.6191406 31.425415-10.864502 45.8557129 15.7470704-5.3781738 27.1071778-20.3103027 27.1071778-37.8557129 0-4.4111328-3.5888672-8-8-8zm-112-191.7164307v121.3782959l120 28.2005615v-29.8624267h-24c-4.4179688 0-8-3.581543-8-8s3.5820313-8 8-8h7.7182617c-1.8764648-26.8769531-13.2783203-51.918396-32.5649414-71.1328125-19.2302246-19.3013916-44.2456055-30.6951904-71.1533203-32.5836182zm-48-24.2835693v144h32v-144zm-119.7121582 128h7.7121582c4.4179688 0 8 3.581543 8 8s-3.5820313 8-8 8h-24v30.0195923l120-28.3499146v-121.3801269c-55.314209 3.9380493-99.793457 48.3666382-103.7121582 103.7104492zm10.8193359 133.8557129c-6.2453613-14.4302979-9.9333496-29.9835816-10.8645019-45.8557129h-8.2426758c-4.4111328 0-8 3.5888672-8 8 0 17.5454102 11.3601074 32.4775391 27.1071777 37.8557129zm124.8928223 66.1442871c33.6809082 0 65.5432129-14.2785645 88-38.4326172v-73.5673828h-16v8c0 4.418457-3.5820313 8-8 8s-8-3.581543-8-8v-8h-40v24c4.4179688 0 8 3.581543 8 8v24c0 4.418457-3.5820313 8-8 8h-24c-4.4179688 0-8-3.581543-8-8s3.5820313-8 8-8h16v-8c-4.4179688 0-8-3.581543-8-8v-32h-56v8c0 4.418457-3.5820313 8-8 8s-8-3.581543-8-8v-8h-16v73.5673828c22.4567871 24.1540527 54.3190918 38.4326172 88 38.4326172zm-136 152h32v-88c0-4.418457 3.5820313-8 8-8s8 3.581543 8 8v88h68.6860352l-10.3432617-10.3432617c-1.640625-1.640625-2.4873047-3.9125977-2.3222656-6.2265625l6.472168-90.6087646-16.8354492 16.8353271c-2.2632751 2.2618408-5.7583618 2.9605713-8.7187347 1.734375-2.9892732-1.2382813-4.938492-4.1552735-4.938492-7.3911133v-40h-56c-13.2333984 0-24 10.7661133-24 24zm272-112c0-13.2338867-10.7666016-24-24-24h-56v40c0 3.2358398-1.9492188 6.152832-4.9384766 7.3911133-2.9453125 1.219696-6.4622803.5220642-8.71875-1.734375-.0106964-.0106812-16.8354492-16.8353271-16.8354492-16.8353271l6.472168 90.6087646c.1650391 2.3139648-.6816406 4.5859375-2.3222656 6.2265625l-10.3432618 10.3432617h68.6860352v-88c0-4.418457 3.5820313-8 8-8s8 3.581543 8 8v88h32zm160 80h8c2.8037109 0 5.4970703.4833984 8 1.3710938v-97.3710938c0-4.4111328-3.5888672-8-8-8h-8zm16 24c0-4.4111328-3.5888672-8-8-8h-16c-4.4179688 0-8-3.581543-8-8v-80h-128v104h152c2.1337891 0 4.1035156-.815918 5.5449219-2.2978516.0507813-.0532227.1035156-.1054688.15625-.1572266 1.4824219-1.4414062 2.2988281-3.4106445 2.2988281-5.5449218zm16-480v144c0 4.418457-3.5820313 8-8 8h-96c-4.4179688 0-8-3.581543-8-8v-144c0-4.418457 3.5820313-8 8-8h96c4.4179688 0 8 3.581543 8 8zm-16 8h-80v128h80zm-64 24h48c4.4179688 0 8-3.581543 8-8s-3.5820313-8-8-8h-48c-4.4179688 0-8 3.581543-8 8s3.5820313 8 8 8zm-24 240c25.6572266 0 51.4521484-22.2050781 78.8603516-67.8842773 2.2724609-3.7885742 1.0439453-8.7026367-2.7441406-10.9755859-3.7919922-2.2753906-8.7041016-1.0439453-10.9765625 2.7441406-23.9335938 39.8896484-45.8496094 60.1157226-65.1396485 60.1157226-17.3603516 0-24.1416016-25.5664063-24.2431641-25.9580078-1.0791016-4.2753906-5.4130859-6.8725586-9.6972656-5.8032227-4.2861328 1.0717773-6.8925781 5.4150391-5.8203125 9.7016602.3876953 1.5537109 9.8583985 38.0595703 39.7607422 38.0595703zm96-96c-4.4179688 0-8 3.581543-8 8v120h-16v-48c0-4.418457-3.5820313-8-8-8s-8 3.581543-8 8v48h-16v-24c0-4.418457-3.5820313-8-8-8s-8 3.581543-8 8v24h-16v-8c0-4.418457-3.5820313-8-8-8s-8 3.581543-8 8v8h-16c-4.4179688 0-8 3.581543-8 8s3.5820313 8 8 8h120c4.4179688 0 8-3.581543 8-8v-128c0-4.418457-3.5820312-8-8-8zm-72-120c4.4182129 0 8-3.5817261 8-8s-3.5817871-8-8-8-8 3.5817261-8 8 3.5817871 8 8 8zm24-16c-4.4182129 0-8 3.5817261-8 8s3.5817871 8 8 8 8-3.5817261 8-8-3.5817871-8-8-8zm24 0c-4.4182129 0-8 3.5817261-8 8s3.5817871 8 8 8 8-3.5817261 8-8-3.5817871-8-8-8zm-48 40c4.4182129 0 8-3.5817261 8-8s-3.5817871-8-8-8-8 3.5817261-8 8 3.5817871 8 8 8zm24-16c-4.4182129 0-8 3.5817261-8 8s3.5817871 8 8 8 8-3.5817261 8-8-3.5817871-8-8-8zm24 0c-4.4182129 0-8 3.5817261-8 8s3.5817871 8 8 8 8-3.5817261 8-8-3.5817871-8-8-8zm-48 40c4.4182129 0 8-3.5817261 8-8s-3.5817871-8-8-8-8 3.5817261-8 8 3.5817871 8 8 8zm24-16c-4.4182129 0-8 3.5817261-8 8s3.5817871 8 8 8 8-3.5817261 8-8-3.5817871-8-8-8zm24 0c-4.4182129 0-8 3.5817261-8 8s3.5817871 8 8 8 8-3.5817261 8-8-3.5817871-8-8-8zm-48 40c4.4182129 0 8-3.5817261 8-8s-3.5817871-8-8-8-8 3.5817261-8 8 3.5817871 8 8 8zm24-16c-4.4182129 0-8 3.5817261-8 8s3.5817871 8 8 8 8-3.5817261 8-8-3.5817871-8-8-8zm24 0c-4.4182129 0-8 3.5817261-8 8s3.5817871 8 8 8 8-3.5817261 8-8-3.5817871-8-8-8z" fill="url(#SVGID_1_)"/></svg>